<svg width="16" height="16" viewBox="0 0 16 16" fill="none" xmlns="http://www.w3.org/2000/svg">
<g id="drag_indicator" clip-path="url(#clip0_1_121)">
<path id="Vector" d="M7.33333 12C7.33333 12.7333 6.73333 13.3333 6 13.3333C5.26667 13.3333 4.66667 12.7333 4.66667 12C4.66667 11.2667 5.26667 10.6667 6 10.6667C6.73333 10.6667 7.33333 11.2667 7.33333 12ZM6 6.66666C5.26667 6.66666 4.66667 7.26666 4.66667 8C4.66667 8.73333 5.26667 9.33333 6 9.33333C6.73333 9.33333 7.33333 8.73333 7.33333 8C7.33333 7.26666 6.73333 6.66666 6 6.66666ZM6 2.66666C5.26667 2.66666 4.66667 3.26666 4.66667 4C4.66667 4.73333 5.26667 5.33333 6 5.33333C6.73333 5.33333 7.33333 4.73333 7.33333 4C7.33333 3.26666 6.73333 2.66666 6 2.66666ZM10 5.33333C10.7333 5.33333 11.3333 4.73333 11.3333 4C11.3333 3.26666 10.7333 2.66666 10 2.66666C9.26667 2.66666 8.66667 3.26666 8.66667 4C8.66667 4.73333 9.26667 5.33333 10 5.33333ZM10 6.66666C9.26667 6.66666 8.66667 7.26666 8.66667 8C8.66667 8.73333 9.26667 9.33333 10 9.33333C10.7333 9.33333 11.3333 8.73333 11.3333 8C11.3333 7.26666 10.7333 6.66666 10 6.66666ZM10 10.6667C9.26667 10.6667 8.66667 11.2667 8.66667 12C8.66667 12.7333 9.26667 13.3333 10 13.3333C10.7333 13.3333 11.3333 12.7333 11.3333 12C11.3333 11.2667 10.7333 10.6667 10 10.6667Z" fill="white"/>
</g>
<defs>
<clipPath id="clip0_1_121">
<rect width="16" height="16" fill="white"/>
</clipPath>
</defs>
</svg>
