<svg xmlns="http://www.w3.org/2000/svg">
  <symbol viewBox="0 0 24 24" id="arrow-down">
    <g id="keyboard_arrow_down" clip-path="url(#clip0_213_509)">
      <path id="Vector" d="M7.41 8.59L12 13.17L16.59 8.59L18 10L12 16L6 10L7.41 8.59Z"
        fill="currentColor"></path>
    </g>
    <defs>
      <clipPath id="clip0_213_509">
        <rect width="24" height="24" fill="currentColor"></rect>
      </clipPath>
    </defs>
  </symbol>
  <symbol viewBox="0 0 24 24" id="arrow-up">
    <g id="Group 378">
      <path id="Vector 12" d="M17 15L12 10L7 15" stroke="currentColor" fill="none"></path>
    </g>
  </symbol>
  <symbol viewBox="0 0 16 16" id="icon-drag-track">
    <g id="drag_indicator" clip-path="url(#clip0_1_121)">
      <path id="Vector"
        d="M7.33333 12C7.33333 12.7333 6.73333 13.3333 6 13.3333C5.26667 13.3333 4.66667 12.7333 4.66667 12C4.66667 11.2667 5.26667 10.6667 6 10.6667C6.73333 10.6667 7.33333 11.2667 7.33333 12ZM6 6.66666C5.26667 6.66666 4.66667 7.26666 4.66667 8C4.66667 8.73333 5.26667 9.33333 6 9.33333C6.73333 9.33333 7.33333 8.73333 7.33333 8C7.33333 7.26666 6.73333 6.66666 6 6.66666ZM6 2.66666C5.26667 2.66666 4.66667 3.26666 4.66667 4C4.66667 4.73333 5.26667 5.33333 6 5.33333C6.73333 5.33333 7.33333 4.73333 7.33333 4C7.33333 3.26666 6.73333 2.66666 6 2.66666ZM10 5.33333C10.7333 5.33333 11.3333 4.73333 11.3333 4C11.3333 3.26666 10.7333 2.66666 10 2.66666C9.26667 2.66666 8.66667 3.26666 8.66667 4C8.66667 4.73333 9.26667 5.33333 10 5.33333ZM10 6.66666C9.26667 6.66666 8.66667 7.26666 8.66667 8C8.66667 8.73333 9.26667 9.33333 10 9.33333C10.7333 9.33333 11.3333 8.73333 11.3333 8C11.3333 7.26666 10.7333 6.66666 10 6.66666ZM10 10.6667C9.26667 10.6667 8.66667 11.2667 8.66667 12C8.66667 12.7333 9.26667 13.3333 10 13.3333C10.7333 13.3333 11.3333 12.7333 11.3333 12C11.3333 11.2667 10.7333 10.6667 10 10.6667Z"
        fill="currentColor"></path>
    </g>
    <defs>
      <clipPath id="clip0_1_121">
        <rect width="16" height="16" fill="currentColor"></rect>
      </clipPath>
    </defs>
  </symbol>
  <symbol viewBox="0 0 24 24" id="icon-grid">
    <g id="view_module" clip-path="url(#clip0_1_787)">
      <path id="Vector"
        d="M4 5V18H21V5H4ZM14 7V10.5H11V7H14ZM6 7H9V10.5H6V7ZM6 16V12.5H9V16H6ZM11 16V12.5H14V16H11ZM19 16H16V12.5H19V16ZM16 10.5V7H19V10.5H16Z"
        fill="currentColor"></path>
    </g>
    <defs>
      <clipPath id="clip0_1_787">
        <rect width="24" height="24" fill="currentColor"></rect>
      </clipPath>
    </defs>
  </symbol>
  <symbol viewBox="0 0 24 24" id="icon-list">
    <g id="view_headline" clip-path="url(#clip0_1_784)">
      <path id="Vector" d="M4 15H20V13H4V15ZM4 19H20V17H4V19ZM4 11H20V9H4V11ZM4 5V7H20V5H4Z"
        fill="currentColor"></path>
    </g>
    <defs>
      <clipPath id="clip0_1_784">
        <rect width="24" height="24" fill="currentColor"></rect>
      </clipPath>
    </defs>
  </symbol>
  <symbol viewBox="0 0 20 20" id="icon-search">
    <g id="search" clip-path="url(#clip0_213_529)">
      <path id="Vector"
        d="M12.9167 11.6667H12.2583L12.025 11.4417C12.8417 10.4917 13.3333 9.25833 13.3333 7.91667C13.3333 4.925 10.9083 2.5 7.91667 2.5C4.925 2.5 2.5 4.925 2.5 7.91667C2.5 10.9083 4.925 13.3333 7.91667 13.3333C9.25833 13.3333 10.4917 12.8417 11.4417 12.025L11.6667 12.2583V12.9167L15.8333 17.075L17.075 15.8333L12.9167 11.6667ZM7.91667 11.6667C5.84167 11.6667 4.16667 9.99167 4.16667 7.91667C4.16667 5.84167 5.84167 4.16667 7.91667 4.16667C9.99167 4.16667 11.6667 5.84167 11.6667 7.91667C11.6667 9.99167 9.99167 11.6667 7.91667 11.6667Z"
        fill="currentColor"></path>
    </g>
    <defs>
      <clipPath id="clip0_213_529">
        <rect width="20" height="20" fill="currentColor"></rect>
      </clipPath>
    </defs>
  </symbol>
  <symbol viewBox="0 0 24 24" fill="none" id="icon-moon">
    <path
      d="M12 22C17.5228 22 22 17.5228 22 12C22 11.5373 21.3065 11.4608 21.0672 11.8568C19.9289 13.7406 17.8615 15 15.5 15C11.9101 15 9 12.0899 9 8.5C9 6.13845 10.2594 4.07105 12.1432 2.93276C12.5392 2.69347 12.4627 2 12 2C6.47715 2 2 6.47715 2 12C2 17.5228 6.47715 22 12 22Z"
      fill="currentColor" />
  </symbol>
</svg>